<svg width="1783" height="1525" viewBox="0 0 1783 1525" fill="none" xmlns="http://www.w3.org/2000/svg">
<path d="M234.154 1.96772C132.704 16.315 48.4191 85.2333 15.115 181.053C1.02474 221.789 1.7933 197.193 1.02474 609.166L0 989.626L14.8588 975.278C99.9125 892.781 229.03 856.913 348.157 883.046C409.385 896.368 465.49 925.063 514.165 967.336L535.172 985.27L536.453 895.343C537.478 828.218 539.015 799.524 541.833 783.383C569.757 636.58 676.587 527.181 823.381 495.925C857.966 488.751 920.476 488.239 954.548 494.9C1104.16 524.363 1210.48 631.199 1241.73 783.383C1245.83 802.854 1246.6 831.037 1247.88 1054.96C1249.42 1304.75 1249.42 1304.75 1255.05 1324.99C1269.66 1375.72 1292.97 1414.92 1329.09 1449.76C1433.87 1551.22 1600.65 1549.94 1703.64 1446.69C1737.45 1412.87 1761.53 1370.85 1775.11 1321.92L1782.03 1297.07L1782.8 1020.37C1783.57 732.911 1782.54 697.299 1772.81 639.91C1718.24 317.864 1443.09 63.4562 1091.61 9.90998C934.566 -13.9168 768.301 5.55455 622.532 64.7372C594.607 76.2662 534.66 105.729 511.091 119.821L497.769 127.507L486.241 111.622C471.638 91.1259 439.359 59.8693 418.095 45.522C394.526 29.6375 362.247 15.2902 334.066 8.11656C306.142 1.19912 260.285 -1.87531 234.154 1.96772Z" fill="#424242"/>
<path d="M219.551 982.196C132.961 999.361 61.2285 1055.73 24.3377 1135.66C7.94185 1171.02 2.30576 1199.2 2.04958 1243.27C1.79339 1285.54 4.86762 1303.22 17.9331 1339.34C47.6507 1420.56 116.052 1482.05 202.387 1505.36C224.163 1511.25 231.592 1512.02 269.251 1511.77C303.836 1511.77 315.109 1510.74 330.736 1506.38C382.229 1492.55 423.731 1469.24 457.548 1435.16C490.084 1402.88 512.628 1364.71 527.23 1317.31C533.635 1295.79 534.148 1291.69 534.148 1245.83C534.148 1200.22 533.635 1195.61 527.23 1174.09C496.744 1073.15 415.79 999.361 316.646 981.94C289.49 977.328 243.633 977.328 219.551 982.196Z" fill="#FC433F"/>
</svg>
